<?xml version="1.0" standalone="no"?><!DOCTYPE svg PUBLIC "-//W3C//DTD SVG 1.1//EN" "http://www.w3.org/Graphics/SVG/1.1/DTD/svg11.dtd"><svg t="1780886594696" class="icon" viewBox="0 0 1096 1024" version="1.1" xmlns="http://www.w3.org/2000/svg" p-id="15246" xmlns:xlink="http://www.w3.org/1999/xlink" width="274" height="256"><path d="M1030.528862 1023.990791H219.163497c-35.913346 0-65.288622-28.086078-65.380707-62.618141v-0.368342c0.092086-197.615489 169.713582-358.212606 378.103074-358.212606h186.012716c208.389493 0 378.010989 160.781288 378.103075 358.212606v0.368342a64.459852 64.459852 0 0 1-65.380707 62.618141zM400.848194 531.057095l-2.117967-0.092086a259.128605 259.128605 0 0 1-234.173433-255.353099 254.155988 254.155988 0 0 1 74.497171-182.697638c50.739112-51.567882 121.460778-81.035242 193.932069-81.035242h43.8327c11.418602 0 20.903409 9.024379 21.271751 20.535067A304.342587 304.342587 0 0 1 634.192858 0h220.636865c32.506182 0 59.026807 26.520625 59.026807 59.118893v220.636865c0 80.482729-32.782439 159.031663-90.059622 215.480076a281.597468 281.597468 0 0 1-199.088857 83.061124h-3.68342a287.583025 287.583025 0 0 1-285.280888-285.465059c-1.012941-75.602198 28.45442-147.705147 82.876953-202.772277 12.89197-13.168227 27.165223-25.047257 42.17516-35.545004h-27.809822a231.134612 231.134612 0 0 0-163.635938 68.419528 211.796657 211.796657 0 0 0-62.2498 152.309422 216.400932 216.400932 0 0 0 195.681693 213.546281 21.179666 21.179666 0 1 1-1.933795 42.359331z m-282.702494 398.453971H61.144774A59.671406 59.671406 0 0 1 0 871.497199C0 691.28587 154.243217 545.146177 343.939353 545.146177h44.937725a21.640093 21.640093 0 0 1 0 43.188101h-44.937725C178.093362 588.334278 43.280186 715.2281 43.280186 871.313028c0.092086 8.471866 8.103524 15.378279 18.140844 15.378279h56.908841c11.87903 0 21.640093 9.668978 21.640093 21.640093a21.824264 21.824264 0 0 1-21.732178 21.179666z" fill="#1677ff" p-id="15247"></path></svg>