<?xml version="1.0" standalone="no"?><!DOCTYPE svg PUBLIC "-//W3C//DTD SVG 1.1//EN" "http://www.w3.org/Graphics/SVG/1.1/DTD/svg11.dtd"><svg t="1780911606764" class="icon" viewBox="0 0 1024 1024" version="1.1" xmlns="http://www.w3.org/2000/svg" p-id="5113" xmlns:xlink="http://www.w3.org/1999/xlink" width="256" height="256"><path d="M515.188 504.428c-4.911 14.883-6.619 26.888-6.705 37.008-34.983 11.425-60.436 43.952-60.436 82.777v300.569a1880.83 1880.83 0 0 1-34.472 0.297c-179.306 0-373.135-22.763-373.135-122.754v-27.55c0-73.357 132.284-147.637 245.043-188.49 8.071-2.988 47.022-24.178 25.243-81.195-55.866-57.189-97.982-149.56-97.982-240.428 0-139.474 92.087-212.472 199.849-212.472 107.593 0 200.194 72.999 200.194 212.472 0 90.571-42.457 182.577-97.896 239.766h0.297z" fill="#1677ff" p-id="5114"></path><path d="M959.877 738.864c-1.859 0-2.783 0-4.641 0.931v-0.931l-57.537-164.266c-10.061-29.362-37.639-49.112-68.674-49.185H617.432c-30.625 0-58.467 19.489-68.676 49.185l-57.535 164.266v0.931c-1.86 0-2.786-0.931-4.643-0.931-12.993 0-23.202 10.211-23.202 23.201 0 12.993 10.209 23.202 23.202 23.202 1.857 0 2.783 0 4.643-0.928v112.288c0 15.779 12.062 27.845 27.838 27.845 15.774 0 27.843-12.065 27.843-27.845v-9.28h352.65v9.28c0 15.779 12.068 27.845 27.844 27.845 15.773 0 27.838-12.065 27.838-27.845V784.34c1.859 0 2.783 0.928 4.643 0.928 12.99 0 23.199-10.209 23.199-23.202 0-12.991-10.209-23.202-23.199-23.202zM593.303 840.949c-15.375 0-27.842-12.466-27.842-27.842 0-15.38 12.467-27.84 27.842-27.84 15.377 0 27.842 12.46 27.842 27.84 0 15.376-12.465 27.842-27.842 27.842z m273.767-3.729a27.84 27.84 0 0 1-41.762-24.112c0-15.38 12.467-27.84 27.846-27.84 15.371 0 27.84 12.46 27.84 27.84a27.842 27.842 0 0 1-13.924 24.112z m-10.209-103.924H590.516c-25.055 0-43.611-25.058-34.334-49.186l29.699-81.667c8.348-24.13 31.551-39.904 57.535-39.904h159.621c25.988 0 48.258 15.774 58.469 39.904l29.695 81.667c9.279 24.128-9.279 49.186-34.34 49.186z m0 0" fill="#1677ff" p-id="5115"></path></svg>