<?xml version="1.0" standalone="no"?><!DOCTYPE svg PUBLIC "-//W3C//DTD SVG 1.1//EN" "http://www.w3.org/Graphics/SVG/1.1/DTD/svg11.dtd"><svg t="1780885606251" class="icon" viewBox="0 0 1024 1024" version="1.1" xmlns="http://www.w3.org/2000/svg" p-id="9897" xmlns:xlink="http://www.w3.org/1999/xlink" width="256" height="256"><path d="M878.933333 509.155556l12.325926 17.066666v60.681482l-16.118518 18.962963h-47.407408v8.533333h-10.429629c0-49.303704-31.288889-86.281481-91.022223-78.696296v-26.548148h-22.755555V371.674074l10.42963-18.962963h143.17037c18.014815 33.185185 27.496296 66.37037 33.185185 100.503704h-161.185185v5.688889H891.259259l0.948148 33.185185-10.429629 17.066667h-2.844445z m-232.296296-45.511112v-11.377777c-3.792593-12.325926-10.42963-22.755556-18.962963-32.237037-36.977778-10.42963-65.422222-15.17037-103.348148-18.014815-22.755556-23.703704-48.355556-42.666667-78.696296-57.837037-70.162963-3.792593-137.481481-2.844444-201.955556 2.844444-1.896296 2.844444-4.740741 5.688889-6.637037 9.481482 1.896296 2.844444 4.740741 5.688889 6.637037 8.533333l-45.511111 51.2c-0.948148 8.533333-0.948148 17.066667-1.896296 25.6-1.896296 0.948148-2.844444 2.844444-4.740741 3.792593l2.844444 23.703703-44.562963 53.096297h-2.844444v33.185185h-22.755556v50.251852h16.118519v13.274074h5.688889l5.688889 0.948148c1.896296-16.118519 5.688889-30.340741 9.481481-42.666667 4.740741-13.274074 10.42963-24.651852 17.066667-33.185185h93.866667c5.688889 10.42963 9.481481 21.807407 13.274074 34.133333 3.792593 13.274074 6.637037 27.496296 7.585185 42.666667l9.481481-0.948148 9.481482 0.948148c1.896296-16.118519 5.688889-30.340741 9.481481-42.666667 4.740741-13.274074 10.42963-24.651852 17.066667-33.185185h93.866667c5.688889 10.42963 9.481481 21.807407 13.274074 34.133334 3.792593 13.274074 6.637037 27.496296 7.585185 42.666666l11.377778-0.948148c0-2.844444-0.948148-4.740741-0.948149-7.585185v-5.688889H654.222222v13.274074h12.325926c-0.948148-40.77037 13.274074-70.162963 51.2-81.540741v-11.377777c-7.585185 1.896296-15.17037 4.740741-20.859259 7.585185v-10.42963H692.148148l-45.511111-61.62963z m35.081482 58.785186H572.681481c8.533333-1.896296 16.118519-5.688889 21.807408-11.377778 7.585185-7.585185 12.325926-18.962963 12.325926-30.340741 0-12.325926-4.740741-22.755556-12.325926-30.340741-7.585185-7.585185-18.962963-12.325926-30.340741-12.325926-12.325926 0-22.755556 4.740741-30.340741 12.325926-7.585185 7.585185-12.325926 18.962963-12.325926 30.340741 0 12.325926 4.740741 22.755556 12.325926 30.340741 5.688889 5.688889 13.274074 10.42963 21.807408 11.377778H283.496296c7.585185-1.896296 15.17037-5.688889 20.85926-11.377778 7.585185-7.585185 12.325926-18.962963 12.325925-30.340741 0-12.325926-4.740741-22.755556-12.325925-30.340741-7.585185-7.585185-18.962963-12.325926-30.340741-12.325926-12.325926 0-22.755556 4.740741-30.340741 12.325926-7.585185 7.585185-12.325926 18.962963-12.325926 30.340741 0 12.325926 4.740741 22.755556 12.325926 30.340741 5.688889 5.688889 12.325926 9.481481 20.859259 11.377778H163.081481l36.02963-42.666667v3.792593l26.548148 6.637037c-0.948148-2.844444-0.948148-6.637037-0.948148-10.42963 0-14.222222 5.688889-26.548148 15.17037-35.081482 9.481481-9.481481 21.807407-15.17037 35.081482-15.17037 14.222222 0 26.548148 5.688889 35.081481 15.17037 9.481481 9.481481 14.222222 21.807407 14.222223 35.081482 0 5.688889-0.948148 11.377778-2.844445 17.066667h196.266667c-1.896296-5.688889-2.844444-11.377778-2.844445-17.066667 0-14.222222 5.688889-26.548148 14.222223-35.081482 9.481481-9.481481 21.807407-15.17037 35.081481-15.17037 14.222222 0 26.548148 5.688889 35.081482 15.17037 9.481481 9.481481 15.17037 21.807407 15.17037 35.081482 0 4.740741-0.948148 8.533333-1.896296 13.274074l27.496296-3.792593c2.844444-4.740741 4.740741-9.481481 6.637037-15.17037l35.081482 48.355556z m-405.807408-40.770371l12.325926 13.274074c-1.896296 1.896296-3.792593 3.792593-5.688889 4.740741l-11.377778-15.17037-9.481481 16.118518c-1.896296-0.948148-4.740741-1.896296-5.688889-3.792592l11.377778-15.170371-18.962963-4.74074c0-2.844444 0.948148-4.740741 1.896296-6.637038l18.014815 6.637038-0.948148-18.962963c2.844444-0.948148 4.740741 0 6.637037 0l-0.948148 18.962963 18.014814-6.637038c0.948148 1.896296 1.896296 4.740741 1.896297 6.637038l-17.066667 4.74074z m13.274074-18.962963c4.740741 4.740741 7.585185 10.42963 7.585185 17.066667s-2.844444 13.274074-7.585185 17.066667c-4.740741 4.740741-10.42963 7.585185-17.066666 7.585185s-13.274074-2.844444-17.066667-7.585185c-4.740741-4.740741-7.585185-10.42963-7.585185-17.066667s2.844444-13.274074 7.585185-17.066667c4.740741-4.740741 10.42963-7.585185 17.066667-7.585185 6.637037 0.948148 13.274074 2.844444 17.066666 7.585185z m277.807408 18.962963l12.325926 13.274074c-1.896296 1.896296-3.792593 3.792593-5.688889 4.740741l-11.377778-15.17037-9.481482 16.118518c-1.896296-0.948148-4.740741-1.896296-5.688889-3.792592l11.377778-15.170371-18.962963-4.74074c0-2.844444 0.948148-4.740741 1.896297-6.637038l18.014814 6.637038-0.948148-18.962963c2.844444-0.948148 4.740741 0 6.637037 0l-0.948148 18.962963 18.014815-6.637038c0.948148 1.896296 1.896296 4.740741 1.896296 6.637038l-17.066666 4.74074z m13.274074-18.962963c4.740741 4.740741 7.585185 10.42963 7.585185 17.066667s-2.844444 13.274074-7.585185 17.066667c-4.740741 4.740741-10.42963 7.585185-17.066667 7.585185s-13.274074-2.844444-17.066667-7.585185c-4.740741-4.740741-7.585185-10.42963-7.585185-17.066667s2.844444-13.274074 7.585185-17.066667c4.740741-4.740741 10.42963-7.585185 17.066667-7.585185 6.637037 0.948148 13.274074 2.844444 17.066667 7.585185z m-310.992593-63.525926c-1.896296-3.792593-2.844444-6.637037-4.740741-10.429629 4.740741-13.274074 9.481481-21.807407 17.066667-33.185185 4.740741 0 10.42963-0.948148 15.17037-0.948149l-3.792592 44.562963h-23.703704z m-66.37037 33.185186l0.948148-15.170371 11.377778-13.274074 11.377777 2.844445c-4.740741 16.118519-5.688889 24.651852-23.703703 25.6z m106.192592-77.748149c26.548148-0.948148 51.2-1.896296 76.8-0.948148l4.740741 47.407408-78.696296-0.948148-2.844445-45.511112z m88.177778-0.948148c13.274074 0 27.496296 0.948148 41.718519 2.844445 19.911111 11.377778 35.081481 23.703704 48.355555 38.874074l-0.948148 2.844444c-4.740741-4.740741-10.42963-8.533333-17.066667-12.325926l-4.74074 15.170371h-56.888889l-10.42963-47.407408z m17.066667 65.422222h20.859259c0 10.42963-20.859259 10.42963-20.859259 0z m-97.65926 0h20.85926c0 10.42963-20.859259 10.42963-20.85926 0z m310.992593 5.688889c6.637037 7.585185 10.42963 15.17037 14.222222 23.703704-15.17037 0-22.755556-14.222222-14.222222-23.703704z m119.466667-49.303703v55.94074l114.725926 15.170371c-1.896296-22.755556-7.585185-44.562963-17.066667-65.422222v24.651851c0 1.896296-1.896296 3.792593-3.792593 3.792593h-14.222222c-1.896296 0-3.792593-1.896296-3.792592-3.792593v-30.34074h-75.851852z m88.177778 208.592592v6.637037h34.133333v-6.637037h-34.133333z m-8.533334-26.548148v6.637037h43.614815v-6.637037h-43.614815z m-16.118518-25.6v6.637037h59.733333v-6.637037h-59.733333z m-586.903704 17.066667c18.014815 0 34.133333 7.585185 46.459259 18.962963 11.377778 11.377778 18.962963 28.444444 18.962963 46.459259 0 18.014815-7.585185 34.133333-18.962963 46.459259-11.377778 11.377778-28.444444 18.962963-46.459259 18.962963-18.014815 0-34.133333-7.585185-46.459259-18.962963-11.377778-11.377778-18.962963-28.444444-18.962963-46.459259 0-18.014815 7.585185-34.133333 18.962963-46.459259 11.377778-12.325926 28.444444-18.962963 46.459259-18.962963z m-20.859259 61.629629c1.896296 0 2.844444 1.896296 2.844444 2.844445 0 1.896296-1.896296 2.844444-2.844444 2.844444-1.896296 0-2.844444-1.896296-2.844445-2.844444-0.948148-0.948148 0.948148-2.844444 2.844445-2.844445z m3.792592 16.118519c-0.948148 0.948148-0.948148 2.844444 0 4.740741 0.948148 0.948148 2.844444 0.948148 4.740741 0 0.948148-0.948148 0.948148-2.844444 0-4.740741-1.896296-1.896296-3.792593-1.896296-4.740741 0z m13.274074 7.585185c0 1.896296 1.896296 2.844444 2.844445 2.844445s2.844444-1.896296 2.844444-2.844445c0-1.896296-1.896296-2.844444-2.844444-2.844444s-2.844444 1.896296-2.844445 2.844444z m16.118519-3.792592c0.948148 0.948148 2.844444 0.948148 4.740741 0 0.948148-0.948148 0.948148-2.844444 0-4.740741-0.948148-0.948148-2.844444-0.948148-4.740741 0-0.948148 1.896296-0.948148 3.792593 0 4.740741z m8.533333-13.274075c-1.896296 0-2.844444-1.896296-2.844444-2.844444 0-1.896296 1.896296-2.844444 2.844444-2.844444 1.896296 0 2.844444 1.896296 2.844445 2.844444 0 0.948148-0.948148 2.844444-2.844445 2.844444z m-3.792592-16.118518c-0.948148 0.948148-2.844444 0.948148-4.740741 0-0.948148-0.948148-0.948148-2.844444 0-4.740741 0.948148-0.948148 2.844444-0.948148 4.740741 0 0.948148 1.896296 0.948148 3.792593 0 4.740741z m-14.222223-8.533333c0 1.896296-1.896296 2.844444-2.844444 2.844444-1.896296 0-2.844444-1.896296-2.844444-2.844444 0-1.896296 1.896296-2.844444 2.844444-2.844445 0.948148 0 2.844444 1.896296 2.844444 2.844445z m-16.118518 4.74074c0.948148 0.948148 0.948148 2.844444 0 4.740741-0.948148 0.948148-2.844444 0.948148-4.740741 0-0.948148-0.948148-0.948148-2.844444 0-4.740741 1.896296-1.896296 3.792593-1.896296 4.740741 0z m32.237037-2.844444c4.740741 4.740741 7.585185 11.377778 7.585185 18.962963s-2.844444 14.222222-7.585185 18.962963-11.377778 7.585185-18.962963 7.585185-14.222222-2.844444-18.962963-7.585185-7.585185-11.377778-7.585185-18.962963 2.844444-14.222222 7.585185-18.962963 11.377778-7.585185 18.962963-7.585185 14.222222 2.844444 18.962963 7.585185z m141.274074-45.511111c18.014815 0 34.133333 7.585185 46.459259 18.962963 11.377778 11.377778 18.962963 28.444444 18.962963 46.459259 0 18.014815-7.585185 34.133333-18.962963 46.459259-11.377778 11.377778-28.444444 18.962963-46.459259 18.962963-18.014815 0-34.133333-7.585185-46.459259-18.962963-11.377778-11.377778-18.962963-28.444444-18.962963-46.459259 0-18.014815 7.585185-34.133333 18.962963-46.459259 11.377778-12.325926 28.444444-18.962963 46.459259-18.962963z m-20.859259 61.629629c1.896296 0 2.844444 1.896296 2.844444 2.844445 0 1.896296-1.896296 2.844444-2.844444 2.844444s-2.844444-1.896296-2.844445-2.844444c-0.948148-0.948148 0.948148-2.844444 2.844445-2.844445z m3.792592 16.118519c-0.948148 0.948148-0.948148 2.844444 0 4.740741 0.948148 0.948148 3.792593 0.948148 4.740741 0 0.948148-0.948148 0.948148-2.844444 0-4.740741-1.896296-1.896296-3.792593-1.896296-4.740741 0z m13.274074 7.585185c0 1.896296 1.896296 2.844444 2.844445 2.844445 1.896296 0 2.844444-1.896296 2.844444-2.844445 0-1.896296-1.896296-2.844444-2.844444-2.844444-0.948148 0-2.844444 1.896296-2.844445 2.844444z m16.118519-3.792592c0.948148 0.948148 2.844444 0.948148 4.740741 0 0.948148-0.948148 0.948148-2.844444 0-4.740741-0.948148-0.948148-2.844444-0.948148-4.740741 0-1.896296 1.896296-1.896296 3.792593 0 4.740741z m8.533333-13.274075c-1.896296 0-2.844444-1.896296-2.844444-2.844444 0-1.896296 1.896296-2.844444 2.844444-2.844444 1.896296 0 2.844444 1.896296 2.844445 2.844444 0 0.948148-1.896296 2.844444-2.844445 2.844444z m-4.74074-16.118518c-0.948148 0.948148-2.844444 0.948148-4.740741 0-0.948148-0.948148-0.948148-2.844444 0-4.740741 0.948148-0.948148 2.844444-0.948148 4.740741 0 1.896296 1.896296 1.896296 3.792593 0 4.740741z m-13.274075-8.533333c0 1.896296-1.896296 2.844444-2.844444 2.844444-1.896296 0-2.844444-1.896296-2.844444-2.844444 0-1.896296 1.896296-2.844444 2.844444-2.844445 0.948148 0 2.844444 1.896296 2.844444 2.844445z m-16.118518 4.74074c0.948148 0.948148 0.948148 2.844444 0 4.740741-0.948148 0.948148-2.844444 0.948148-4.740741 0-0.948148-0.948148-0.948148-2.844444 0-4.740741 1.896296-1.896296 3.792593-1.896296 4.740741 0z m32.237037-2.844444c4.740741 4.740741 7.585185 11.377778 7.585185 18.962963s-2.844444 14.222222-7.585185 18.962963-11.377778 7.585185-18.962963 7.585185-14.222222-2.844444-18.962963-7.585185-7.585185-11.377778-7.585185-18.962963 2.844444-14.222222 7.585185-18.962963 11.377778-7.585185 18.962963-7.585185c6.637037 0 13.274074 2.844444 18.962963 7.585185z m337.540741-45.511111c-18.014815 0-34.133333 7.585185-46.45926 18.962963-11.377778 11.377778-18.962963 28.444444-18.962963 46.459259 0 18.014815 7.585185 34.133333 18.962963 46.459259 11.377778 11.377778 28.444444 18.962963 46.45926 18.962963 18.014815 0 34.133333-7.585185 46.459259-18.962963 11.377778-11.377778 18.962963-28.444444 18.962963-46.459259 0-18.014815-7.585185-34.133333-18.962963-46.459259-12.325926-12.325926-28.444444-18.962963-46.459259-18.962963z m-20.85926 61.629629c-1.896296 0-2.844444 1.896296-2.844444 2.844445 0 1.896296 1.896296 2.844444 2.844444 2.844444 1.896296 0 2.844444-1.896296 2.844445-2.844444 0-0.948148-0.948148-2.844444-2.844445-2.844445z m3.792593 16.118519c0.948148-0.948148 2.844444-0.948148 4.740741 0 0.948148 0.948148 0.948148 2.844444 0 4.740741-0.948148 0.948148-2.844444 0.948148-4.740741 0-0.948148-1.896296-0.948148-3.792593 0-4.740741z m14.222222 7.585185c0-1.896296 1.896296-2.844444 2.844445-2.844444 1.896296 0 2.844444 1.896296 2.844444 2.844444 0 1.896296-1.896296 2.844444-2.844444 2.844445-1.896296 0.948148-2.844444-0.948148-2.844445-2.844445z m15.170371-3.792592c-0.948148-0.948148-0.948148-2.844444 0-4.740741 0.948148-0.948148 2.844444-0.948148 4.74074 0 0.948148 0.948148 0.948148 2.844444 0 4.740741s-2.844444 1.896296-4.74074 0z m8.533333-13.274075c1.896296 0 2.844444-1.896296 2.844444-2.844444 0-1.896296-1.896296-2.844444-2.844444-2.844444-1.896296 0-2.844444 1.896296-2.844444 2.844444 0 0.948148 0.948148 2.844444 2.844444 2.844444z m-3.792593-16.118518c0.948148-0.948148 0.948148-2.844444 0-4.740741-0.948148-0.948148-2.844444-0.948148-4.74074 0-0.948148 0.948148-0.948148 2.844444 0 4.740741 1.896296 1.896296 3.792593 1.896296 4.74074 0z m-14.222222-8.533333c0-1.896296-1.896296-2.844444-2.844444-2.844445-1.896296 0-2.844444 1.896296-2.844445 2.844445 0 1.896296 1.896296 2.844444 2.844445 2.844444 1.896296 0.948148 2.844444-0.948148 2.844444-2.844444z m-15.17037 4.74074c-0.948148-0.948148-2.844444-0.948148-4.740741 0-0.948148 0.948148-0.948148 2.844444 0 4.740741 0.948148 0.948148 2.844444 0.948148 4.740741 0 0.948148-1.896296 0.948148-3.792593 0-4.740741z m31.288889-2.844444c-4.740741-4.740741-11.377778-7.585185-18.962963-7.585185s-14.222222 2.844444-18.962963 7.585185-7.585185 11.377778-7.585185 18.962963 2.844444 14.222222 7.585185 18.962963 11.377778 7.585185 18.962963 7.585185 14.222222-2.844444 18.962963-7.585185 7.585185-11.377778 7.585185-18.962963c0-6.637037-2.844444-13.274074-7.585185-18.962963z" fill="#17abe3" p-id="9898"></path></svg>