<?xml version="1.0" standalone="no"?><!DOCTYPE svg PUBLIC "-//W3C//DTD SVG 1.1//EN" "http://www.w3.org/Graphics/SVG/1.1/DTD/svg11.dtd"><svg t="1780885521892" class="icon" viewBox="0 0 2352 1024" version="1.1" xmlns="http://www.w3.org/2000/svg" p-id="7645" xmlns:xlink="http://www.w3.org/1999/xlink" width="588" height="256"><path d="M757.696 453.424a51.2 51.2 0 0 1 51.2 51.2v142.448H641.12a51.2 51.2 0 0 0-49.856 39.6l-20.16 86.608H505.6a25.6 25.6 0 0 1-25.6-25.6V479.024a25.6 25.6 0 0 1 25.6-25.6h252.096z m-151.2 24.608h-101.2v98.4h101.2v-98.4z" p-id="7646" fill="#17abe3"></path><path d="M758.304 453.424c27.952 0 50.592 22.032 50.592 49.2v144.448h-168c-23.648 0-44.16 15.92-49.36 38.352l-20.448 87.84H505.28c-13.968 0-25.296-11.008-25.296-24.592V478.032c0-13.6 11.328-24.608 25.296-24.608h253.008zM505.28 748.672h45.536l16.016-68.688c7.488-32.16 35.936-55.424 69.44-57.376l4.592-0.128 142.72-0.032v-119.824c0-12.608-9.76-23.008-22.352-24.432l-2.944-0.16H505.28v270.64z" p-id="7647" fill="#17abe3"></path><path d="M651.904 660.976c34.944 0 63.264 27.536 63.264 61.52 0 33.968-28.32 61.504-63.264 61.504-34.928 0-63.248-27.536-63.248-61.504 0-33.984 28.32-61.52 63.248-61.52z m0 24.608c-20.96 0-37.952 16.528-37.952 36.912s16.992 36.896 37.952 36.896c20.96 0 37.952-16.512 37.952-36.896s-16.992-36.912-37.952-36.912zM997.792 660.976c34.928 0 63.248 27.536 63.248 61.52 0 33.968-28.32 61.504-63.248 61.504s-63.248-27.536-63.248-61.504c0-33.984 28.32-61.52 63.248-61.52z m0 24.608c-20.96 0-37.952 16.528-37.952 36.912s16.992 36.896 37.952 36.896c20.96 0 37.952-16.512 37.952-36.896s-16.992-36.912-37.952-36.912zM1676.32 685.584c27.936 0 50.592 22.032 50.592 49.216 0 27.168-22.656 49.2-50.592 49.2-27.952 0-50.608-22.032-50.608-49.2 0-27.184 22.656-49.216 50.608-49.216z m0 24.608c-13.984 0-25.296 11.008-25.296 24.608 0 13.584 11.312 24.592 25.28 24.592 13.984 0 25.312-11.008 25.312-24.592 0-13.6-11.328-24.608-25.296-24.608zM1792.752 685.584c27.936 0 50.592 22.032 50.592 49.216 0 27.168-22.656 49.2-50.592 49.2-27.952 0-50.608-22.032-50.608-49.2 0-27.184 22.656-49.216 50.608-49.216z m0 24.608c-13.984 0-25.312 11.008-25.312 24.608 0 13.584 11.328 24.592 25.312 24.592 13.968 0 25.28-11.008 25.28-24.592 0-13.6-11.312-24.608-25.28-24.608z" p-id="7648" fill="#17abe3"></path><path d="M733.008 675.52h184.656v73.152H733.008z" p-id="7649" fill="#17abe3"></path><path d="M917.664 675.52v73.152H733.008v-73.168h184.656z m-25.312-0.656h-134.048v49.2h134.048v-49.2zM1649.552 417.408c4.88 0 9.344 2.736 11.424 7.04l112.736 231.264c4 8.16-2.128 17.568-11.424 17.568l-136.016-0.016-29.408 54.912a12.64 12.64 0 0 1-8.896 6.4l-2.32 0.224H1132.816a12.8 12.8 0 0 1-9.872-4.608l-86.32-104.56-202.192 0.016a12.56 12.56 0 0 1-12.448-10.08l-0.192-2.224-0.032-171.328H570.096a12.56 12.56 0 0 1-12.448-10.096l-0.192-2.208a12.48 12.48 0 0 1 12.64-12.32h1079.456z m-23.36 24.608H847.072v159.008l195.632 0.016c3.072 0 6 1.088 8.288 3.008l1.584 1.6 86.304 104.512h439.088l29.424-54.864a12.64 12.64 0 0 1 8.896-6.4l103.52-0.224h7.104l-100.72-206.656z" p-id="7650" fill="#17abe3"></path><path d="M973.2 424.848l81.12 183.648-23.232 9.712-81.12-183.648zM1843.36 648.672a12.48 12.48 0 0 1 12.64 12.32 12.48 12.48 0 0 1-12.64 12.288h-197.632a12.48 12.48 0 0 1-12.64-12.304 12.48 12.48 0 0 1 12.64-12.304h197.616z" p-id="7651" fill="#17abe3"></path><path d="M1467.12 535.248a6.4 6.4 0 0 1 5.984 4.128l15.744 41.52a6.4 6.4 0 0 0 4.56 3.968l75.072 17.248a6.4 6.4 0 0 1 4.976 6.24v56.48a6.4 6.4 0 0 1-6.4 6.4l-45.6 0.016c0.704-3.264 1.072-6.656 1.072-10.128 0-27.168-22.656-49.2-50.592-49.2-27.952 0-50.608 22.032-50.608 49.2 0 3.472 0.368 6.864 1.072 10.128h-110.672c0.72-3.312 1.12-6.752 1.12-10.272 0-27.168-22.672-49.2-50.608-49.2-27.952 0-50.608 22.032-50.608 49.2 0 3.52 0.384 6.96 1.104 10.256H1150.08a6.4 6.4 0 0 1-6.16-8.112l14.832-53.12a6.4 6.4 0 0 1 4.992-4.576l111.104-20.88a6.4 6.4 0 0 0 3.776-2.256L1314.88 537.6a6.4 6.4 0 0 1 4.976-2.368h147.28z m-101.6 29.632h-25.312l-25.28 36.16h50.592v-36.16z" p-id="7652" fill="#17abe3"></path><path d="M1262.24 626.304c20.96 0 37.936 16.512 37.936 36.896s-16.976 36.912-37.936 36.912-37.952-16.528-37.952-36.912 16.992-36.896 37.952-36.896z m0 24.592a12.48 12.48 0 0 0-12.656 12.32 12.48 12.48 0 0 0 12.64 12.288 12.48 12.48 0 0 0 12.656-12.304 12.48 12.48 0 0 0-12.64-12.304zM1471.936 626.304c20.96 0 37.952 16.512 37.952 36.896s-16.992 36.912-37.952 36.912c-20.96 0-37.952-16.528-37.952-36.912s16.992-36.896 37.952-36.896z m0 24.592a12.48 12.48 0 0 0-12.656 12.32 12.48 12.48 0 0 0 12.64 12.288 12.48 12.48 0 0 0 12.656-12.304 12.48 12.48 0 0 0-12.64-12.304z" p-id="7653" fill="#17abe3"></path><path d="M1011.712 240a6.4 6.4 0 0 1 5.984 4.128l15.744 41.536a6.4 6.4 0 0 0 4.56 3.968l75.072 17.232a6.4 6.4 0 0 1 4.96 6.24v56.48a6.4 6.4 0 0 1-6.4 6.4l-45.584 0.016c0.704-3.264 1.072-6.656 1.072-10.128 0-27.168-22.656-49.2-50.608-49.2-27.936 0-50.592 22.032-50.592 49.2 0 3.472 0.368 6.864 1.072 10.128H856.32c0.72-3.312 1.104-6.752 1.104-10.272 0-27.168-22.656-49.2-50.608-49.2-27.936 0-50.592 22.032-50.592 49.2 0 3.52 0.384 6.96 1.104 10.256h-62.656a6.4 6.4 0 0 1-6.176-8.112l14.848-53.12a6.4 6.4 0 0 1 4.976-4.576l111.104-20.88a6.4 6.4 0 0 0 3.792-2.256l36.24-44.672a6.4 6.4 0 0 1 4.976-2.368h147.28z m-101.6 27.152H884.8l-25.28 38.64h50.592v-38.64z" p-id="7654" fill="#17abe3"></path><path d="M806.816 331.04c20.96 0 37.952 16.528 37.952 36.912s-16.992 36.912-37.952 36.912c-20.96 0-37.936-16.528-37.936-36.912s16.976-36.896 37.936-36.896z m0 24.608a12.48 12.48 0 0 0-12.64 12.32 12.48 12.48 0 0 0 12.64 12.288 12.48 12.48 0 0 0 12.656-12.304 12.48 12.48 0 0 0-12.64-12.304zM1016.512 331.04c20.96 0 37.952 16.528 37.952 36.912s-16.992 36.912-37.952 36.912c-20.96 0-37.936-16.528-37.936-36.912s16.992-36.896 37.936-36.896z m0 24.608a12.48 12.48 0 0 0-12.64 12.32 12.48 12.48 0 0 0 12.64 12.288 12.48 12.48 0 0 0 12.656-12.304 12.48 12.48 0 0 0-12.64-12.304z" p-id="7655" fill="#17abe3"></path><path d="M1492.416 240a6.4 6.4 0 0 1 5.984 4.128l15.76 41.536a6.4 6.4 0 0 0 4.544 3.968l75.088 17.232a6.4 6.4 0 0 1 4.96 6.24v56.48a6.4 6.4 0 0 1-6.4 6.4l-45.6 0.016c0.704-3.264 1.072-6.656 1.072-10.128 0-27.168-22.64-49.2-50.592-49.2-27.952 0-50.608 22.032-50.608 49.2 0 3.472 0.368 6.864 1.072 10.128h-110.656c0.72-3.312 1.088-6.752 1.088-10.272 0-27.168-22.656-49.2-50.592-49.2-27.952 0-50.608 22.032-50.608 49.2 0 3.52 0.384 6.96 1.12 10.256H1175.36a6.4 6.4 0 0 1-6.16-8.112l14.848-53.12a6.4 6.4 0 0 1 4.96-4.576l111.12-20.88a6.4 6.4 0 0 0 3.792-2.256l36.24-44.672A6.4 6.4 0 0 1 1345.12 240h147.28z m-101.6 28.48h-25.296l-25.312 37.312h50.608V268.48z" p-id="7656" fill="#17abe3"></path><path d="M1287.52 331.04c20.96 0 37.968 16.528 37.968 36.912S1308.48 404.864 1287.52 404.864c-20.96 0-37.952-16.528-37.952-36.912S1266.56 331.056 1287.52 331.056z m0 24.608a12.48 12.48 0 0 0-12.64 12.32 12.48 12.48 0 0 0 12.64 12.288 12.48 12.48 0 0 0 12.656-12.304 12.48 12.48 0 0 0-12.64-12.304zM1497.232 331.04c20.96 0 37.952 16.528 37.952 36.912s-16.992 36.912-37.952 36.912c-20.96 0-37.952-16.528-37.952-36.912s16.992-36.896 37.952-36.896z m0 24.608a12.48 12.48 0 0 0-12.64 12.32 12.48 12.48 0 0 0 12.64 12.288 12.48 12.48 0 0 0 12.64-12.304 12.48 12.48 0 0 0-12.64-12.304z" p-id="7657" fill="#17abe3"></path></svg>