<svg xmlns="http://www.w3.org/2000/svg" viewBox="0 0 24 24" fill="none" stroke="#1677ff" stroke-width="2" stroke-linecap="round" stroke-linejoin="round">
  <path d="M12.2 2h-.4a2 2 0 0 0-2 1.7l-.2 1.2a8 8 0 0 0-1.5.9L7 5.3a2 2 0 0 0-2.7.7l-.2.4a2 2 0 0 0 .4 2.8l1 .7a7 7 0 0 0 0 1.8l-1 .7a2 2 0 0 0-.4 2.8l.2.4a2 2 0 0 0 2.7.7l1.1-.5a8 8 0 0 0 1.5.9l.2 1.2a2 2 0 0 0 2 1.7h.4a2 2 0 0 0 2-1.7l.2-1.2a8 8 0 0 0 1.5-.9l1.1.5a2 2 0 0 0 2.7-.7l.2-.4a2 2 0 0 0-.4-2.8l-1-.7a7 7 0 0 0 0-1.8l1-.7a2 2 0 0 0 .4-2.8l-.2-.4A2 2 0 0 0 17 5.3l-1.1.5a8 8 0 0 0-1.5-.9l-.2-1.2a2 2 0 0 0-2-1.7Z"/>
  <circle cx="12" cy="12" r="3"/>
</svg>
